<mxfile host="Electron" modified="2023-09-14T20:25:12.366Z" agent="Mozilla/5.0 (Windows NT 10.0; Win64; x64) AppleWebKit/537.36 (KHTML, like Gecko) draw.io/21.6.1 Chrome/112.0.5615.204 Electron/24.6.1 Safari/537.36" etag="djwY_9s4N_d640EHXnPH" version="21.6.1" type="device">
  <diagram id="C5RBs43oDa-KdzZeNtuy" name="Page-1">
    <mxGraphModel dx="2074" dy="-333" grid="1" gridSize="10" guides="1" tooltips="1" connect="1" arrows="1" fold="1" page="1" pageScale="1" pageWidth="827" pageHeight="1169" math="0" shadow="0">
      <root>
        <mxCell id="WIyWlLk6GJQsqaUBKTNV-0" />
        <mxCell id="WIyWlLk6GJQsqaUBKTNV-1" parent="WIyWlLk6GJQsqaUBKTNV-0" />
        <mxCell id="E8aoPSwC2TfYCV2xYEIS-13" value="" style="edgeStyle=orthogonalEdgeStyle;rounded=0;orthogonalLoop=1;jettySize=auto;html=1;entryX=0.5;entryY=0;entryDx=0;entryDy=0;" parent="WIyWlLk6GJQsqaUBKTNV-1" edge="1">
          <mxGeometry relative="1" as="geometry">
            <mxPoint x="410" y="300" as="sourcePoint" />
          </mxGeometry>
        </mxCell>
        <mxCell id="E8aoPSwC2TfYCV2xYEIS-7" value="" style="edgeStyle=orthogonalEdgeStyle;rounded=0;orthogonalLoop=1;jettySize=auto;html=1;" parent="WIyWlLk6GJQsqaUBKTNV-1" edge="1">
          <mxGeometry relative="1" as="geometry">
            <mxPoint x="410" y="160" as="sourcePoint" />
          </mxGeometry>
        </mxCell>
        <mxCell id="E8aoPSwC2TfYCV2xYEIS-14" value="" style="edgeStyle=orthogonalEdgeStyle;rounded=0;orthogonalLoop=1;jettySize=auto;html=1;entryX=0.5;entryY=0;entryDx=0;entryDy=0;" parent="WIyWlLk6GJQsqaUBKTNV-1" edge="1">
          <mxGeometry relative="1" as="geometry">
            <mxPoint x="410" y="370" as="sourcePoint" />
          </mxGeometry>
        </mxCell>
        <mxCell id="E8aoPSwC2TfYCV2xYEIS-15" value="" style="edgeStyle=orthogonalEdgeStyle;rounded=0;orthogonalLoop=1;jettySize=auto;html=1;" parent="WIyWlLk6GJQsqaUBKTNV-1" edge="1">
          <mxGeometry relative="1" as="geometry">
            <mxPoint x="410" y="440" as="sourcePoint" />
          </mxGeometry>
        </mxCell>
        <mxCell id="fFQM5VQvCsF1J5gH5Bex-3" value="End" style="rounded=0;whiteSpace=wrap;html=1;fontSize=18;" parent="WIyWlLk6GJQsqaUBKTNV-1" vertex="1">
          <mxGeometry x="352.48" y="2840" width="110" height="40" as="geometry" />
        </mxCell>
        <mxCell id="u454bDgJ1MIOaeo4TZrT-35" value="" style="edgeStyle=orthogonalEdgeStyle;rounded=0;orthogonalLoop=1;jettySize=auto;html=1;" parent="WIyWlLk6GJQsqaUBKTNV-1" source="Q3nPs3YvQLMRrCx2Q80f-8" target="u454bDgJ1MIOaeo4TZrT-34" edge="1">
          <mxGeometry relative="1" as="geometry" />
        </mxCell>
        <mxCell id="Q3nPs3YvQLMRrCx2Q80f-8" value="Pose Estimation" style="shape=process;whiteSpace=wrap;html=1;backgroundOutline=1;fontSize=18;" parent="WIyWlLk6GJQsqaUBKTNV-1" vertex="1">
          <mxGeometry x="297.43" y="1720" width="220" height="30" as="geometry" />
        </mxCell>
        <mxCell id="u454bDgJ1MIOaeo4TZrT-33" style="edgeStyle=orthogonalEdgeStyle;rounded=0;orthogonalLoop=1;jettySize=auto;html=1;exitX=0.5;exitY=1;exitDx=0;exitDy=0;entryX=0.5;entryY=0;entryDx=0;entryDy=0;" parent="WIyWlLk6GJQsqaUBKTNV-1" source="u454bDgJ1MIOaeo4TZrT-25" target="Q3nPs3YvQLMRrCx2Q80f-8" edge="1">
          <mxGeometry relative="1" as="geometry" />
        </mxCell>
        <mxCell id="u454bDgJ1MIOaeo4TZrT-25" value="Overlay Result on Frame" style="whiteSpace=wrap;html=1;fontSize=18;rounded=1;" parent="WIyWlLk6GJQsqaUBKTNV-1" vertex="1">
          <mxGeometry x="297.43" y="1650" width="220" height="30" as="geometry" />
        </mxCell>
        <mxCell id="u454bDgJ1MIOaeo4TZrT-37" value="" style="edgeStyle=orthogonalEdgeStyle;rounded=0;orthogonalLoop=1;jettySize=auto;html=1;" parent="WIyWlLk6GJQsqaUBKTNV-1" source="u454bDgJ1MIOaeo4TZrT-34" target="u454bDgJ1MIOaeo4TZrT-36" edge="1">
          <mxGeometry relative="1" as="geometry" />
        </mxCell>
        <mxCell id="u454bDgJ1MIOaeo4TZrT-34" value="Distortion Correction" style="whiteSpace=wrap;html=1;fontSize=18;rounded=1;" parent="WIyWlLk6GJQsqaUBKTNV-1" vertex="1">
          <mxGeometry x="297.47" y="1780" width="220" height="30" as="geometry" />
        </mxCell>
        <mxCell id="u454bDgJ1MIOaeo4TZrT-60" value="" style="edgeStyle=orthogonalEdgeStyle;rounded=0;orthogonalLoop=1;jettySize=auto;html=1;" parent="WIyWlLk6GJQsqaUBKTNV-1" source="u454bDgJ1MIOaeo4TZrT-36" target="u454bDgJ1MIOaeo4TZrT-59" edge="1">
          <mxGeometry relative="1" as="geometry" />
        </mxCell>
        <mxCell id="u454bDgJ1MIOaeo4TZrT-36" value="Compute Pose using Camera Matrix" style="whiteSpace=wrap;html=1;fontSize=18;rounded=1;" parent="WIyWlLk6GJQsqaUBKTNV-1" vertex="1">
          <mxGeometry x="297.47" y="1834" width="220" height="50" as="geometry" />
        </mxCell>
        <mxCell id="u454bDgJ1MIOaeo4TZrT-51" value="No" style="edgeStyle=orthogonalEdgeStyle;rounded=0;orthogonalLoop=1;jettySize=auto;html=1;exitX=0;exitY=0.5;exitDx=0;exitDy=0;entryX=0;entryY=0.5;entryDx=0;entryDy=0;fontSize=18;" parent="WIyWlLk6GJQsqaUBKTNV-1" source="u454bDgJ1MIOaeo4TZrT-49" target="Q3nPs3YvQLMRrCx2Q80f-8" edge="1">
          <mxGeometry x="-0.0004" relative="1" as="geometry">
            <Array as="points">
              <mxPoint x="257.47" y="2155" />
              <mxPoint x="257.47" y="1735" />
            </Array>
            <mxPoint as="offset" />
          </mxGeometry>
        </mxCell>
        <mxCell id="u454bDgJ1MIOaeo4TZrT-53" value="Yes" style="edgeStyle=orthogonalEdgeStyle;rounded=0;orthogonalLoop=1;jettySize=auto;html=1;fontSize=18;" parent="WIyWlLk6GJQsqaUBKTNV-1" source="u454bDgJ1MIOaeo4TZrT-49" target="u454bDgJ1MIOaeo4TZrT-52" edge="1">
          <mxGeometry relative="1" as="geometry" />
        </mxCell>
        <mxCell id="u454bDgJ1MIOaeo4TZrT-49" value="Last ID&lt;br&gt;?" style="rhombus;whiteSpace=wrap;html=1;fontSize=18;rounded=1;" parent="WIyWlLk6GJQsqaUBKTNV-1" vertex="1">
          <mxGeometry x="349.9800000000001" y="2110" width="115" height="90" as="geometry" />
        </mxCell>
        <mxCell id="u454bDgJ1MIOaeo4TZrT-65" value="" style="edgeStyle=orthogonalEdgeStyle;rounded=0;orthogonalLoop=1;jettySize=auto;html=1;" parent="WIyWlLk6GJQsqaUBKTNV-1" source="u454bDgJ1MIOaeo4TZrT-52" target="u454bDgJ1MIOaeo4TZrT-64" edge="1">
          <mxGeometry relative="1" as="geometry" />
        </mxCell>
        <mxCell id="u454bDgJ1MIOaeo4TZrT-52" value="Overlay Marker Axis &lt;br&gt;on Frame" style="whiteSpace=wrap;html=1;fontSize=18;rounded=1;" parent="WIyWlLk6GJQsqaUBKTNV-1" vertex="1">
          <mxGeometry x="297.44000000000005" y="2267" width="220" height="53" as="geometry" />
        </mxCell>
        <mxCell id="u454bDgJ1MIOaeo4TZrT-62" value="" style="edgeStyle=orthogonalEdgeStyle;rounded=0;orthogonalLoop=1;jettySize=auto;html=1;" parent="WIyWlLk6GJQsqaUBKTNV-1" source="u454bDgJ1MIOaeo4TZrT-59" target="u454bDgJ1MIOaeo4TZrT-61" edge="1">
          <mxGeometry relative="1" as="geometry" />
        </mxCell>
        <mxCell id="u454bDgJ1MIOaeo4TZrT-59" value="Calculate Relative&lt;br&gt;Orientation" style="whiteSpace=wrap;html=1;fontSize=18;rounded=1;" parent="WIyWlLk6GJQsqaUBKTNV-1" vertex="1">
          <mxGeometry x="297.47" y="1960" width="220" height="50" as="geometry" />
        </mxCell>
        <mxCell id="u454bDgJ1MIOaeo4TZrT-63" value="" style="edgeStyle=orthogonalEdgeStyle;rounded=0;orthogonalLoop=1;jettySize=auto;html=1;" parent="WIyWlLk6GJQsqaUBKTNV-1" source="u454bDgJ1MIOaeo4TZrT-61" target="u454bDgJ1MIOaeo4TZrT-49" edge="1">
          <mxGeometry relative="1" as="geometry" />
        </mxCell>
        <mxCell id="u454bDgJ1MIOaeo4TZrT-61" value="&lt;font style=&quot;font-size: 18px;&quot;&gt;Store Angle Data&lt;/font&gt;" style="strokeWidth=2;html=1;shape=mxgraph.flowchart.stored_data;whiteSpace=wrap;" parent="WIyWlLk6GJQsqaUBKTNV-1" vertex="1">
          <mxGeometry x="297.47" y="2040" width="220" height="40" as="geometry" />
        </mxCell>
        <mxCell id="u454bDgJ1MIOaeo4TZrT-67" value="" style="edgeStyle=orthogonalEdgeStyle;rounded=0;orthogonalLoop=1;jettySize=auto;html=1;" parent="WIyWlLk6GJQsqaUBKTNV-1" source="u454bDgJ1MIOaeo4TZrT-64" target="u454bDgJ1MIOaeo4TZrT-66" edge="1">
          <mxGeometry relative="1" as="geometry" />
        </mxCell>
        <mxCell id="u454bDgJ1MIOaeo4TZrT-64" value="Display Frame to User" style="strokeWidth=2;html=1;shape=mxgraph.flowchart.display;whiteSpace=wrap;fontSize=18;" parent="WIyWlLk6GJQsqaUBKTNV-1" vertex="1">
          <mxGeometry x="297.4800000000001" y="2350" width="220" height="53" as="geometry" />
        </mxCell>
        <mxCell id="u454bDgJ1MIOaeo4TZrT-69" value="" style="edgeStyle=orthogonalEdgeStyle;rounded=0;orthogonalLoop=1;jettySize=auto;html=1;" parent="WIyWlLk6GJQsqaUBKTNV-1" source="u454bDgJ1MIOaeo4TZrT-66" target="u454bDgJ1MIOaeo4TZrT-68" edge="1">
          <mxGeometry relative="1" as="geometry" />
        </mxCell>
        <mxCell id="u454bDgJ1MIOaeo4TZrT-66" value="Encode Stored Angle Data" style="whiteSpace=wrap;html=1;fontSize=18;rounded=1;" parent="WIyWlLk6GJQsqaUBKTNV-1" vertex="1">
          <mxGeometry x="297.4800000000001" y="2430" width="220" height="53" as="geometry" />
        </mxCell>
        <mxCell id="u454bDgJ1MIOaeo4TZrT-71" value="" style="edgeStyle=orthogonalEdgeStyle;rounded=0;orthogonalLoop=1;jettySize=auto;html=1;" parent="WIyWlLk6GJQsqaUBKTNV-1" source="u454bDgJ1MIOaeo4TZrT-68" target="u454bDgJ1MIOaeo4TZrT-70" edge="1">
          <mxGeometry relative="1" as="geometry" />
        </mxCell>
        <mxCell id="u454bDgJ1MIOaeo4TZrT-68" value="Send Encoded Data to Matlab via TCP/IP" style="whiteSpace=wrap;html=1;fontSize=18;rounded=1;" parent="WIyWlLk6GJQsqaUBKTNV-1" vertex="1">
          <mxGeometry x="297.4800000000001" y="2510" width="220" height="53" as="geometry" />
        </mxCell>
        <mxCell id="u454bDgJ1MIOaeo4TZrT-73" value="" style="edgeStyle=orthogonalEdgeStyle;rounded=0;orthogonalLoop=1;jettySize=auto;html=1;" parent="WIyWlLk6GJQsqaUBKTNV-1" source="u454bDgJ1MIOaeo4TZrT-70" target="u454bDgJ1MIOaeo4TZrT-72" edge="1">
          <mxGeometry relative="1" as="geometry" />
        </mxCell>
        <mxCell id="u454bDgJ1MIOaeo4TZrT-70" value="Read User Key Press" style="whiteSpace=wrap;html=1;fontSize=18;rounded=1;" parent="WIyWlLk6GJQsqaUBKTNV-1" vertex="1">
          <mxGeometry x="297.44000000000005" y="2595" width="220" height="53" as="geometry" />
        </mxCell>
        <mxCell id="u454bDgJ1MIOaeo4TZrT-74" value="Yes" style="edgeStyle=orthogonalEdgeStyle;rounded=0;orthogonalLoop=1;jettySize=auto;html=1;fontSize=18;" parent="WIyWlLk6GJQsqaUBKTNV-1" source="u454bDgJ1MIOaeo4TZrT-72" target="fFQM5VQvCsF1J5gH5Bex-3" edge="1">
          <mxGeometry relative="1" as="geometry" />
        </mxCell>
        <mxCell id="rW7nSDksPmygO5f6Kbp8-19" value="No" style="edgeStyle=orthogonalEdgeStyle;rounded=0;orthogonalLoop=1;jettySize=auto;html=1;exitX=0;exitY=0.5;exitDx=0;exitDy=0;entryX=0.5;entryY=1;entryDx=0;entryDy=0;entryPerimeter=0;fontSize=18;" parent="WIyWlLk6GJQsqaUBKTNV-1" source="u454bDgJ1MIOaeo4TZrT-72" target="rW7nSDksPmygO5f6Kbp8-13" edge="1">
          <mxGeometry x="-0.2624" relative="1" as="geometry">
            <mxPoint as="offset" />
          </mxGeometry>
        </mxCell>
        <mxCell id="u454bDgJ1MIOaeo4TZrT-72" value="&#39;Q&#39; &lt;br&gt;Pressed ?&amp;nbsp;" style="rhombus;whiteSpace=wrap;html=1;fontSize=18;rounded=1;" parent="WIyWlLk6GJQsqaUBKTNV-1" vertex="1">
          <mxGeometry x="307.45000000000005" y="2690" width="199.97" height="98.5" as="geometry" />
        </mxCell>
        <mxCell id="rW7nSDksPmygO5f6Kbp8-21" style="edgeStyle=orthogonalEdgeStyle;rounded=0;orthogonalLoop=1;jettySize=auto;html=1;exitX=0.5;exitY=1;exitDx=0;exitDy=0;exitPerimeter=0;entryX=1;entryY=0.5;entryDx=0;entryDy=0;" parent="WIyWlLk6GJQsqaUBKTNV-1" source="rW7nSDksPmygO5f6Kbp8-10" target="u454bDgJ1MIOaeo4TZrT-64" edge="1">
          <mxGeometry relative="1" as="geometry" />
        </mxCell>
        <mxCell id="rW7nSDksPmygO5f6Kbp8-10" value="Flag B&lt;br&gt;&lt;br&gt;" style="strokeWidth=2;html=1;shape=mxgraph.flowchart.merge_or_storage;whiteSpace=wrap;fontSize=18;" parent="WIyWlLk6GJQsqaUBKTNV-1" vertex="1">
          <mxGeometry x="547.47" y="2267" width="95" height="60" as="geometry" />
        </mxCell>
        <mxCell id="rW7nSDksPmygO5f6Kbp8-13" value="Flag A&lt;br style=&quot;font-size: 18px;&quot;&gt;&lt;br style=&quot;font-size: 18px;&quot;&gt;" style="strokeWidth=2;html=1;shape=mxgraph.flowchart.merge_or_storage;whiteSpace=wrap;fontSize=18;" parent="WIyWlLk6GJQsqaUBKTNV-1" vertex="1">
          <mxGeometry x="177.47000000000003" y="2660" width="95" height="60" as="geometry" />
        </mxCell>
        <mxCell id="rW7nSDksPmygO5f6Kbp8-23" style="edgeStyle=orthogonalEdgeStyle;rounded=0;orthogonalLoop=1;jettySize=auto;html=1;exitX=0.5;exitY=1;exitDx=0;exitDy=0;exitPerimeter=0;entryX=0.5;entryY=0;entryDx=0;entryDy=0;" parent="WIyWlLk6GJQsqaUBKTNV-1" source="rW7nSDksPmygO5f6Kbp8-22" target="u454bDgJ1MIOaeo4TZrT-25" edge="1">
          <mxGeometry relative="1" as="geometry" />
        </mxCell>
        <mxCell id="rW7nSDksPmygO5f6Kbp8-22" value="Flag C&lt;br&gt;&lt;br&gt;" style="strokeWidth=2;html=1;shape=mxgraph.flowchart.merge_or_storage;whiteSpace=wrap;fontSize=18;" parent="WIyWlLk6GJQsqaUBKTNV-1" vertex="1">
          <mxGeometry x="360.56" y="1560" width="95" height="60" as="geometry" />
        </mxCell>
      </root>
    </mxGraphModel>
  </diagram>
</mxfile>
